<svg xmlns="http://www.w3.org/2000/svg" viewBox="0 0 512 512" width="512" height="512">
  <style>
    .st0{fill:#F0F2F5;}
    .st1{fill:#DCE0E6;}
    .st2{fill:#0095B2;}
    .st3{fill:#007A94;}
    .st4{fill:#FFFFFF;}
    .st5{opacity:0.4;}
  </style>
  <circle class="st0" cx="256" cy="256" r="256"/>
  <g>
    <path class="st1" d="M370.5,131H141.5c-5.5,0-10,4.5-10,10v230c0,5.5,4.5,10,10,10h229c5.5,0,10-4.5,10-10V141
      C380.5,135.5,376,131,370.5,131z"/>
    <path class="st4" d="M350.5,151H161.5c-5.5,0-10,4.5-10,10v190c0,5.5,4.5,10,10,10h189c5.5,0,10-4.5,10-10V161
      C360.5,155.5,356,151,350.5,151z"/>
    <g class="st5">
      <path class="st2" d="M330.5,171H181.5c-5.5,0-10,4.5-10,10v10c0,5.5,4.5,10,10,10h149c5.5,0,10-4.5,10-10v-10
        C340.5,175.5,336,171,330.5,171z"/>
      <path class="st2" d="M330.5,221H181.5c-5.5,0-10,4.5-10,10v10c0,5.5,4.5,10,10,10h149c5.5,0,10-4.5,10-10v-10
        C340.5,225.5,336,221,330.5,221z"/>
      <path class="st2" d="M330.5,271H181.5c-5.5,0-10,4.5-10,10v10c0,5.5,4.5,10,10,10h149c5.5,0,10-4.5,10-10v-10
        C340.5,275.5,336,271,330.5,271z"/>
      <path class="st2" d="M280.5,321H181.5c-5.5,0-10,4.5-10,10v10c0,5.5,4.5,10,10,10h99c5.5,0,10-4.5,10-10v-10
        C290.5,325.5,286,321,280.5,321z"/>
    </g>
    <g>
      <circle class="st2" cx="320" cy="320" r="70"/>
      <g>
        <rect x="315" y="280" class="st4" width="10" height="80"/>
        <rect x="290" y="315" class="st4" width="60" height="10"/>
      </g>
    </g>
    <path class="st3" d="M320,390c-38.66,0-70-31.34-70-70c0-23.2,11.24-43.74,28.56-56.55C256.82,275.71,250,294.27,250,315
      c0,38.66,31.34,70,70,70c20.73,0,39.29-9.02,52.05-23.26C359.21,379.42,340.52,390,320,390z"/>
  </g>
</svg>
